<?xml version="1.0" encoding="utf-8"?>
<!-- Generator: Adobe Illustrator 26.5.0, SVG Export Plug-In . SVG Version: 6.00 Build 0)  -->
<svg version="1.1" id="Layer_1" xmlns="http://www.w3.org/2000/svg" xmlns:xlink="http://www.w3.org/1999/xlink" x="0px" y="0px"
	 viewBox="0 0 200.6 71.1" style="enable-background:new 0 0 200.6 71.1;" xml:space="preserve">
<style type="text/css">
	.st0{fill:#FFFFFF;}
</style>
<g id="Group_8849" transform="translate(155.217 165.582)">
	<path id="Path_15837" d="M-96-118.2l-11.8,11.8l-11.8-11.8l11.8-11.8L-96-118.2z M-107.8-153.6l-11.8,11.8l11.8,11.8l11.8-11.8
		L-107.8-153.6z M-131.4-153.6l-11.8,11.8l11.8,11.8l11.8-11.8L-131.4-153.6z M-131.4-130l-11.8,11.8l11.8,11.8l11.8-11.8
		L-131.4-130z M-119.6-165.5l-11.8,11.8l11.8,11.8l11.8-11.8L-119.6-165.5z M-96-165.5l-11.8,11.8l11.8,11.8l11.8-11.8L-96-165.5z
		 M-96-141.8l-11.8,11.8l11.8,11.8l11.8-11.8L-96-141.8z M-143.2-165.5l-11.8,11.8l11.8,11.8l11.8-11.8L-143.2-165.5z M-143.3-141.8
		l-11.8,11.8l11.8,11.8l11.8-11.8L-143.3-141.8z M-143.3-118.2l-11.8,11.8l11.8,11.8l11.8-11.8L-143.3-118.2z M-119.6-118.2
		l-11.8,11.8l11.8,11.8l11.8-11.8L-119.6-118.2z M-119.6-141.8l-11.8,11.8l11.8,11.8l11.8-11.8L-119.6-141.8z M-96-118.2l-11.8,11.8
		L-96-94.5l11.8-11.8L-96-118.2z"/>
</g>
<g id="Group_8850" transform="translate(155.276 214.046)">
	<path id="Path_15838" class="st0" d="M-131.5-154.8l-1.2-1.2h-11.8l10.6-1.2l-1.2-1.2h-9.5l8.3-1.2l-1.2-1.2h-7.1l5.9-1.2l-1.2-1.2
		h-4.7l3.5-1.2l-1.2-1.2h-2.4l-1.2,1.2h1.2l-2.4,1.2l-1.2,1.2h3.5l-4.7,1.2l-1.2,1.2h5.9l-7.1,1.2l-1.2,1.2h8.3l-9.5,1.2l-1.2,1.2
		h11.8l-10.6,1.2l1.2,1.2h10.6l-9.5,1.2l1.2,1.2h8.3l-7.1,1.2l1.2,1.2h5.9l-4.7,1.2l1.2,1.2h3.5l-2.4,1.2l1.2,1.2l1.2-1.2l1.2-1.2
		l1.2-1.2h-2.4l3.5-1.2l1.2-1.2h-4.7l5.9-1.2l1.2-1.2h-7.1l8.3-1.2l1.2-1.2h-9.5L-131.5-154.8z"/>
</g>
<g id="Group_8851" transform="translate(203.72 198.685)">
	<path id="Path_15839" class="st0" d="M-155.1-161.9v-2.4l1.2-1.2v4.7L-155.1-161.9z"/>
</g>
<g id="Group_8852" transform="translate(206.084 196.322)">
	<path id="Path_15840" class="st0" d="M-155.1-157.2v-7.1l1.2-1.2v9.5L-155.1-157.2z"/>
</g>
<g id="Group_8853" transform="translate(208.447 193.959)">
	<path id="Path_15841" class="st0" d="M-155.1-152.5v-11.8l1.2-1.2v14.2L-155.1-152.5z"/>
</g>
<g id="Group_8854" transform="translate(210.81 191.596)">
	<path id="Path_15842" class="st0" d="M-155.1-147.7v-16.5l1.2-1.2v18.9L-155.1-147.7z"/>
</g>
<g id="Group_8855" transform="translate(222.625 197.504)">
	<path id="Path_15843" class="st0" d="M-153.9-164.3v4.7l-1.2,1.2v-7.1L-153.9-164.3z"/>
</g>
<g id="Group_8856" transform="translate(220.262 195.14)">
	<path id="Path_15844" class="st0" d="M-153.9-164.3v9.5l-1.2,1.2v-11.8L-153.9-164.3z"/>
</g>
<g id="Group_8857" transform="translate(217.899 192.777)">
	<path id="Path_15845" class="st0" d="M-153.9-164.3v14.2l-1.2,1.2v-16.5L-153.9-164.3z"/>
</g>
<g id="Group_8858" transform="translate(215.536 190.414)">
	<path id="Path_15846" class="st0" d="M-153.9-164.3v18.9l-1.2,1.2v-21.3L-153.9-164.3z"/>
</g>
<g id="Group_8859" transform="translate(213.173 189.233)">
	<path id="Path_15847" class="st0" d="M-155.1-143v-21.3l1.2-1.2v23.6L-155.1-143z"/>
</g>
<g id="Group_8860" transform="translate(224.989 199.867)">
	<path id="Path_15848" class="st0" d="M-155.1-163.1v-2.4l1.2,1.2L-155.1-163.1z"/>
</g>
<g id="Group_8861" transform="translate(164.729 208.138)">
	
		<rect id="Rectangle_3095" x="-154.4" y="-164.8" transform="matrix(0.7072 -0.707 0.707 0.7072 70.5802 -155.7626)" class="st0" width="3.3" height="3.3"/>
</g>
<g id="Group_8862" transform="translate(160.002 203.411)">
	
		<rect id="Rectangle_3096" x="-154.4" y="-164.8" transform="matrix(0.707 -0.7072 0.7072 0.707 70.5821 -155.8095)" class="st0" width="3.3" height="3.3"/>
</g>
<g id="Group_8863" transform="translate(164.729 203.411)">
	
		<rect id="Rectangle_3097" x="-154.4" y="-164.8" transform="matrix(0.7072 -0.707 0.707 0.7072 70.5802 -155.7626)" class="st0" width="3.3" height="3.3"/>
</g>
<g id="Group_8864" transform="translate(160.002 198.685)">
	
		<rect id="Rectangle_3098" x="-154.4" y="-164.8" transform="matrix(0.7071 -0.7071 0.7071 0.7071 70.5811 -155.7861)" class="st0" width="3.3" height="3.3"/>
</g>
<g id="Group_8865" transform="translate(155.276 198.685)">
	
		<rect id="Rectangle_3099" x="-154.4" y="-164.8" transform="matrix(0.7072 -0.707 0.707 0.7072 70.5802 -155.7626)" class="st0" width="3.3" height="3.3"/>
</g>
<g id="Group_8866" transform="translate(169.455 203.411)">
	
		<rect id="Rectangle_3100" x="-154.4" y="-164.8" transform="matrix(0.707 -0.7072 0.7072 0.707 70.5821 -155.8095)" class="st0" width="3.3" height="3.3"/>
</g>
<g id="Group_8867" transform="translate(164.729 198.685)">
	
		<rect id="Rectangle_3101" x="-154.4" y="-164.8" transform="matrix(0.7072 -0.707 0.707 0.7072 70.5802 -155.7626)" class="st0" width="3.3" height="3.3"/>
</g>
<g id="Group_8868" transform="translate(169.455 198.685)">
	
		<rect id="Rectangle_3102" x="-154.4" y="-164.8" transform="matrix(0.7071 -0.7071 0.7071 0.7071 70.5811 -155.7861)" class="st0" width="3.3" height="3.3"/>
</g>
<g id="Group_8869" transform="translate(164.729 193.959)">
	
		<rect id="Rectangle_3103" x="-154.4" y="-164.8" transform="matrix(0.7071 -0.7071 0.7071 0.7071 70.5811 -155.7861)" class="st0" width="3.3" height="3.3"/>
</g>
<g id="Group_8870" transform="translate(160.002 193.959)">
	
		<rect id="Rectangle_3104" x="-154.4" y="-164.8" transform="matrix(0.707 -0.7072 0.7072 0.707 70.5821 -155.8095)" class="st0" width="3.3" height="3.3"/>
</g>
<g id="Group_8871" transform="translate(174.181 198.685)">
	
		<rect id="Rectangle_3105" x="-154.4" y="-164.8" transform="matrix(0.7071 -0.7071 0.7071 0.7071 70.5811 -155.7861)" class="st0" width="3.3" height="3.3"/>
</g>
<g id="Group_8872" transform="translate(169.455 193.959)">
	
		<rect id="Rectangle_3106" x="-154.4" y="-164.8" transform="matrix(0.7072 -0.707 0.707 0.7072 70.5802 -155.7626)" class="st0" width="3.3" height="3.3"/>
</g>
<g id="Group_8873" transform="translate(164.729 189.232)">
	
		<rect id="Rectangle_3107" x="-154.4" y="-164.8" transform="matrix(0.7072 -0.707 0.707 0.7072 70.5802 -155.7626)" class="st0" width="3.3" height="3.3"/>
</g>
<g id="Group_9000" transform="translate(155.123 165.455)">
	<g id="Group_8874" transform="translate(1.68 1.674)">
		<path id="Path_15849" class="st0" d="M-151.3-158.1c0.3,0.3,0.3,0.9,0,1.2s-0.9,0.3-1.2,0s-0.3-0.9,0-1.2c0,0,0,0,0,0
			C-152.2-158.4-151.7-158.4-151.3-158.1 M-149-160.5c0.3,0.3,0.3,0.9,0,1.2c-0.3,0.3-0.9,0.3-1.2,0c-0.3-0.3-0.3-0.9,0-1.2
			C-149.8-160.8-149.3-160.8-149-160.5C-149-160.5-149-160.5-149-160.5 M-146.6-162.8c0.3,0.3,0.3,0.9,0,1.2s-0.9,0.3-1.2,0
			s-0.3-0.9,0-1.2c0,0,0,0,0,0C-147.5-163.2-146.9-163.2-146.6-162.8 M-144.2-165.2c0.3,0.3,0.3,0.9,0,1.2c-0.3,0.3-0.9,0.3-1.2,0
			c-0.3-0.3-0.3-0.9,0-1.2C-145.1-165.5-144.6-165.5-144.2-165.2C-144.2-165.2-144.2-165.2-144.2-165.2 M-144.2-162.8
			c0.3,0.3,0.3,0.9,0,1.2c-0.3,0.3-0.9,0.3-1.2,0c-0.3-0.3-0.3-0.9,0-1.2C-145.1-163.2-144.6-163.2-144.2-162.8
			C-144.2-162.8-144.2-162.8-144.2-162.8 M-141.9-162.8c0.3,0.3,0.3,0.9,0,1.2c-0.3,0.3-0.9,0.3-1.2,0c-0.3-0.3-0.3-0.9,0-1.2
			C-142.7-163.2-142.2-163.2-141.9-162.8C-141.9-162.8-141.9-162.8-141.9-162.8 M-141.9-160.5c0.3,0.3,0.3,0.9,0,1.2
			c-0.3,0.3-0.9,0.3-1.2,0c-0.3-0.3-0.3-0.9,0-1.2C-142.7-160.8-142.2-160.8-141.9-160.5C-141.9-160.5-141.9-160.5-141.9-160.5
			 M-139.5-160.5c0.3,0.3,0.3,0.9,0,1.2s-0.9,0.3-1.2,0s-0.3-0.9,0-1.2c0,0,0,0,0,0C-140.4-160.8-139.8-160.8-139.5-160.5
			C-139.5-160.5-139.5-160.5-139.5-160.5 M-139.5-158.1c0.3,0.3,0.3,0.9,0,1.2c-0.3,0.3-0.9,0.3-1.2,0c-0.3-0.3-0.3-0.9,0-1.2
			C-140.4-158.4-139.8-158.4-139.5-158.1C-139.5-158.1-139.5-158.1-139.5-158.1 M-137.2-158.1c0.3,0.3,0.3,0.9,0,1.2s-0.9,0.3-1.2,0
			s-0.3-0.9,0-1.2c0,0,0,0,0,0C-138-158.4-137.5-158.4-137.2-158.1 M-137.2-155.8c0.3,0.3,0.3,0.9,0,1.2s-0.9,0.3-1.2,0
			s-0.3-0.9,0-1.2c0,0,0,0,0,0C-138-156.1-137.5-156.1-137.2-155.8 M-134.8-155.8c0.3,0.3,0.3,0.9,0,1.2c-0.3,0.3-0.9,0.3-1.2,0
			c-0.3-0.3-0.3-0.9,0-1.2C-135.6-156.1-135.1-156.1-134.8-155.8C-134.8-155.8-134.8-155.8-134.8-155.8 M-138.3-152.2
			c-0.3-0.3-0.3-0.9,0-1.2s0.9-0.3,1.2,0c0.3,0.3,0.3,0.9,0,1.2C-137.5-151.9-138-151.9-138.3-152.2
			C-138.3-152.2-138.3-152.2-138.3-152.2 M-140.7-149.8c-0.3-0.3-0.3-0.9,0-1.2s0.9-0.3,1.2,0c0.3,0.3,0.3,0.9,0,1.2
			C-139.8-149.5-140.4-149.5-140.7-149.8 M-143.1-147.5c-0.3-0.3-0.3-0.9,0-1.2c0.3-0.3,0.9-0.3,1.2,0c0.3,0.3,0.3,0.9,0,1.2
			C-142.2-147.2-142.7-147.2-143.1-147.5C-143.1-147.5-143.1-147.5-143.1-147.5 M-145.4-145.1c-0.3-0.3-0.3-0.9,0-1.2
			c0.3-0.3,0.9-0.3,1.2,0c0.3,0.3,0.3,0.9,0,1.2C-144.6-144.8-145.1-144.8-145.4-145.1C-145.4-145.1-145.4-145.1-145.4-145.1
			 M-145.4-147.5c-0.3-0.3-0.3-0.9,0-1.2c0.3-0.3,0.9-0.3,1.2,0c0.3,0.3,0.3,0.9,0,1.2C-144.6-147.2-145.1-147.2-145.4-147.5
			 M-147.8-147.5c-0.3-0.3-0.3-0.9,0-1.2s0.9-0.3,1.2,0s0.3,0.9,0,1.2c0,0,0,0,0,0C-146.9-147.2-147.5-147.2-147.8-147.5
			 M-147.8-149.8c-0.3-0.3-0.3-0.9,0-1.2s0.9-0.3,1.2,0s0.3,0.9,0,1.2c0,0,0,0,0,0C-146.9-149.5-147.5-149.5-147.8-149.8
			 M-150.2-149.8c-0.3-0.3-0.3-0.9,0-1.2c0.3-0.3,0.9-0.3,1.2,0c0.3,0.3,0.3,0.9,0,1.2C-149.3-149.5-149.8-149.5-150.2-149.8
			 M-150.2-152.2c-0.3-0.3-0.3-0.9,0-1.2c0.3-0.3,0.9-0.3,1.2,0c0.3,0.3,0.3,0.9,0,1.2C-149.3-151.9-149.8-151.9-150.2-152.2
			C-150.1-152.2-150.1-152.2-150.2-152.2 M-152.5-152.2c-0.3-0.3-0.3-0.9,0-1.2s0.9-0.3,1.2,0c0.3,0.3,0.3,0.9,0,1.2
			C-151.7-151.9-152.2-151.9-152.5-152.2 M-149-158.1c0.3,0.3,0.3,0.9,0,1.2s-0.9,0.3-1.2,0c-0.3-0.3-0.3-0.9,0-1.2
			C-149.8-158.4-149.3-158.4-149-158.1C-149-158.1-149-158.1-149-158.1 M-147.8-159.3c-0.3-0.3-0.3-0.9,0-1.2s0.9-0.3,1.2,0
			s0.3,0.9,0,1.2c0,0,0,0,0,0C-146.9-159-147.5-159-147.8-159.3 M-149-154.6c-0.3,0.3-0.9,0.3-1.2,0s-0.3-0.9,0-1.2
			c0.3-0.3,0.9-0.3,1.2,0C-148.6-155.4-148.6-154.9-149-154.6 M-146.6-158.1c0.3,0.3,0.3,0.9,0,1.2s-0.9,0.3-1.2,0s-0.3-0.9,0-1.2
			c0,0,0,0,0,0C-147.5-158.4-146.9-158.4-146.6-158.1 M-145.4-159.3c-0.3-0.3-0.3-0.9,0-1.2c0.3-0.3,0.9-0.3,1.2,0
			c0.3,0.3,0.3,0.9,0,1.2C-144.6-159-145.1-159-145.4-159.3C-145.4-159.3-145.4-159.3-145.4-159.3 M-145.4-156.9
			c-0.3-0.3-0.3-0.9,0-1.2c0.3-0.3,0.9-0.3,1.2,0c0.3,0.3,0.3,0.9,0,1.2C-144.6-156.6-145.1-156.6-145.4-156.9 M-147.8-154.6
			c-0.3-0.3-0.3-0.9,0-1.2s0.9-0.3,1.2,0s0.3,0.9,0,1.2c0,0,0,0,0,0C-146.9-154.3-147.5-154.3-147.8-154.6 M-146.6-153.4
			c0.3,0.3,0.3,0.9,0,1.2s-0.9,0.3-1.2,0s-0.3-0.9,0-1.2c0,0,0,0,0,0C-147.5-153.7-146.9-153.7-146.6-153.4 M-144.2-155.8
			c0.3,0.3,0.3,0.9,0,1.2c-0.3,0.3-0.9,0.3-1.2,0c-0.3-0.3-0.3-0.9,0-1.2C-145.1-156.1-144.6-156.1-144.2-155.8 M-143.1-156.9
			c-0.3-0.3-0.3-0.9,0-1.2c0.3-0.3,0.9-0.3,1.2,0c0.3,0.3,0.3,0.9,0,1.2C-142.2-156.6-142.7-156.6-143.1-156.9
			C-143.1-156.9-143.1-156.9-143.1-156.9 M-143.1-154.6c-0.3-0.3-0.3-0.9,0-1.2c0.3-0.3,0.9-0.3,1.2,0c0.3,0.3,0.3,0.9,0,1.2
			C-142.2-154.3-142.7-154.3-143.1-154.6C-143.1-154.6-143.1-154.6-143.1-154.6 M-145.4-152.2c-0.3-0.3-0.3-0.9,0-1.2
			c0.3-0.3,0.9-0.3,1.2,0c0.3,0.3,0.3,0.9,0,1.2C-144.6-151.9-145.1-151.9-145.4-152.2C-145.4-152.2-145.4-152.2-145.4-152.2
			 M-144.2-151c0.3,0.3,0.3,0.9,0,1.2c-0.3,0.3-0.9,0.3-1.2,0c-0.3-0.3-0.3-0.9,0-1.2C-145.1-151.4-144.6-151.4-144.2-151
			C-144.2-151-144.2-151-144.2-151 M-141.9-153.4c0.3,0.3,0.3,0.9,0,1.2c-0.3,0.3-0.9,0.3-1.2,0c-0.3-0.3-0.3-0.9,0-1.2
			C-142.7-153.7-142.2-153.7-141.9-153.4C-141.9-153.4-141.9-153.4-141.9-153.4 M-140.7-154.6c-0.3-0.3-0.3-0.9,0-1.2s0.9-0.3,1.2,0
			s0.3,0.9,0,1.2c0,0,0,0,0,0C-139.8-154.3-140.4-154.3-140.7-154.6 M-141.9-149.9c-0.3,0.3-0.9,0.3-1.2,0c-0.3-0.3-0.3-0.9,0-1.2
			c0.3-0.3,0.9-0.3,1.2,0C-141.6-150.7-141.6-150.2-141.9-149.9C-141.9-149.9-141.9-149.9-141.9-149.9 M-140.7-152.2
			c-0.3-0.3-0.3-0.9,0-1.2s0.9-0.3,1.2,0s0.3,0.9,0,1.2c0,0,0,0,0,0C-139.8-151.9-140.4-151.9-140.7-152.2 M-152.5-154.6
			c-0.3-0.3-0.3-0.9,0-1.2s0.9-0.3,1.2,0s0.3,0.9,0,1.2c0,0,0,0,0,0C-151.7-154.2-152.2-154.2-152.5-154.6 M-154.9-154.6
			c-0.3-0.3-0.3-0.9,0-1.2s0.9-0.3,1.2,0s0.3,0.9,0,1.2c0,0,0,0,0,0C-154-154.2-154.6-154.2-154.9-154.6
			C-154.9-154.6-154.9-154.6-154.9-154.6"/>
	</g>
	<g id="Group_8875" transform="translate(11.377 22.942)">
		<path id="Path_15850" class="st0" d="M-155.1-165.2L-155.1-165.2l0.6,0.6l0.6-0.6C-154.3-165.5-154.8-165.5-155.1-165.2
			C-155.1-165.2-155.1-165.2-155.1-165.2"/>
	</g>
	<g id="Group_8876" transform="translate(1.925 13.489)">
		<path id="Path_15851" class="st0" d="M-153.9-165.2c-0.3-0.3-0.9-0.3-1.2,0l1.2,1.2C-153.6-164.4-153.6-164.9-153.9-165.2"/>
	</g>
	<g id="Group_8877" transform="translate(4.288 15.853)">
		<path id="Path_15852" class="st0" d="M-153.9-165.2c-0.3-0.3-0.9-0.3-1.2,0l1.2,1.2C-153.6-164.4-153.6-164.9-153.9-165.2"/>
	</g>
	<g id="Group_8878" transform="translate(6.651 18.216)">
		<path id="Path_15853" class="st0" d="M-153.9-165.2c-0.3-0.3-0.9-0.3-1.2,0l1.2,1.2C-153.6-164.4-153.6-164.9-153.9-165.2"/>
	</g>
	<g id="Group_8879" transform="translate(9.014 20.579)">
		<path id="Path_15854" class="st0" d="M-153.9-165.2c-0.3-0.3-0.9-0.3-1.2,0l1.2,1.2C-153.6-164.4-153.6-164.9-153.9-165.2"/>
	</g>
	<g id="Group_8880" transform="translate(0.153 11.371)">
		<path id="Path_15855" class="st0" d="M-154.5-165.5l-0.6,0.6l0.6,0.6C-154.2-164.6-154.2-165.1-154.5-165.5"/>
	</g>
	<g id="Group_8881" transform="translate(13.496 20.579)">
		<path id="Path_15856" class="st0" d="M-154.9-165.2c-0.3,0.3-0.3,0.9,0,1.2c0,0,0,0,0,0l1.2-1.2
			C-154-165.5-154.6-165.5-154.9-165.2C-154.9-165.2-154.9-165.2-154.9-165.2"/>
	</g>
	<g id="Group_8882" transform="translate(1.925 9.008)">
		<path id="Path_15857" class="st0" d="M-153.9-164.3c0.3-0.3,0.3-0.9,0-1.2c0,0,0,0,0,0l-1.2,1.2
			C-154.8-163.9-154.3-163.9-153.9-164.3"/>
	</g>
	<g id="Group_8883" transform="translate(15.859 18.216)">
		<path id="Path_15858" class="st0" d="M-154.9-165.2c-0.3,0.3-0.3,0.9,0,1.2l1.2-1.2C-154-165.5-154.6-165.5-154.9-165.2"/>
	</g>
	<g id="Group_8884" transform="translate(4.288 6.645)">
		<path id="Path_15859" class="st0" d="M-153.9-164.3c0.3-0.3,0.3-0.9,0-1.2l-1.2,1.2C-154.8-163.9-154.3-163.9-153.9-164.3"/>
	</g>
	<g id="Group_8885" transform="translate(18.222 15.853)">
		<path id="Path_15860" class="st0" d="M-154.9-165.2c-0.3,0.3-0.3,0.9,0,1.2l1.2-1.2C-154-165.5-154.6-165.5-154.9-165.2"/>
	</g>
	<g id="Group_8886" transform="translate(6.651 4.282)">
		<path id="Path_15861" class="st0" d="M-153.9-164.3c0.3-0.3,0.3-0.9,0-1.2l-1.2,1.2C-154.8-163.9-154.3-163.9-153.9-164.3
			C-153.9-164.3-153.9-164.3-153.9-164.3"/>
	</g>
	<g id="Group_8887" transform="translate(20.585 13.489)">
		<path id="Path_15862" class="st0" d="M-154.9-165.2c-0.3,0.3-0.3,0.9,0,1.2c0,0,0,0,0,0l1.2-1.2
			C-154-165.5-154.6-165.5-154.9-165.2"/>
	</g>
	<g id="Group_8888" transform="translate(9.014 1.918)">
		<path id="Path_15863" class="st0" d="M-153.9-164.3c0.3-0.3,0.3-0.9,0-1.2l-1.2,1.2C-154.8-163.9-154.3-163.9-153.9-164.3"/>
	</g>
	<g id="Group_8889" transform="translate(22.949 11.371)">
		<path id="Path_15864" class="st0" d="M-154.9-164.3l0.6-0.6l-0.6-0.6C-155.2-165.1-155.2-164.6-154.9-164.3"/>
	</g>
	<g id="Group_8890" transform="translate(13.496 1.918)">
		<path id="Path_15865" class="st0" d="M-154.9-164.3c0.3,0.3,0.9,0.3,1.2,0l-1.2-1.2C-155.2-165.1-155.2-164.6-154.9-164.3"/>
	</g>
	<g id="Group_8891" transform="translate(15.859 4.282)">
		<path id="Path_15866" class="st0" d="M-154.9-164.3c0.3,0.3,0.9,0.3,1.2,0l-1.2-1.2C-155.2-165.1-155.2-164.6-154.9-164.3"/>
	</g>
	<g id="Group_8892" transform="translate(18.222 6.645)">
		<path id="Path_15867" class="st0" d="M-154.9-164.3c0.3,0.3,0.9,0.3,1.2,0l-1.2-1.2C-155.2-165.1-155.2-164.6-154.9-164.3
			C-154.9-164.3-154.9-164.3-154.9-164.3"/>
	</g>
	<g id="Group_8893" transform="translate(20.585 9.008)">
		<path id="Path_15868" class="st0" d="M-154.9-164.3c0.3,0.3,0.9,0.3,1.2,0c0,0,0,0,0,0l-1.2-1.2
			C-155.2-165.1-155.2-164.6-154.9-164.3"/>
	</g>
	<g id="Group_8894" transform="translate(11.377 0.146)">
		<path id="Path_15869" class="st0" d="M-153.9-164.9l-0.6-0.6l-0.6,0.6C-154.8-164.5-154.3-164.5-153.9-164.9"/>
	</g>
	<g id="Group_8895" transform="translate(21.421 45.045)">
		
			<rect id="Rectangle_3108" x="-156.4" y="-160" transform="matrix(0.7071 -0.7071 0.7071 0.7071 68.6232 -151.0596)" class="st0" width="16.7" height="3.3"/>
	</g>
	<g id="Group_8896" transform="translate(16.695 40.319)">
		
			<rect id="Rectangle_3109" x="-156.4" y="-160" transform="matrix(0.7071 -0.7071 0.7071 0.7071 68.6233 -151.0635)" class="st0" width="16.7" height="3.3"/>
	</g>
	<g id="Group_8897" transform="translate(11.969 35.593)">
		
			<rect id="Rectangle_3110" x="-156.4" y="-160" transform="matrix(0.7071 -0.7071 0.7071 0.7071 68.6232 -151.0596)" class="st0" width="16.7" height="3.3"/>
	</g>
	<g id="Group_8898" transform="translate(45.053 35.592)">
		<path id="Path_15870" class="st0" d="M-152.8-165.5l-2.4,2.4l7.1,4.7L-152.8-165.5z"/>
	</g>
	<g id="Group_8899" transform="translate(42.689 37.956)">
		<path id="Path_15871" class="st0" d="M-155.1-163.1l7.1,4.7l-4.7-7.1L-155.1-163.1z"/>
	</g>
	<g id="Group_8900" transform="translate(40.326 40.319)">
		<path id="Path_15872" class="st0" d="M-152.8-165.5l-2.4,2.4l7.1,4.7L-152.8-165.5z"/>
	</g>
	<g id="Group_8901" transform="translate(37.963 42.682)">
		<path id="Path_15873" class="st0" d="M-155.1-163.1l7.1,4.7l-4.7-7.1L-155.1-163.1z"/>
	</g>
	<g id="Group_8902" transform="translate(35.599 45.046)">
		<path id="Path_15874" class="st0" d="M-155.1-163.1l7.1,4.7l-4.7-7.1L-155.1-163.1z"/>
	</g>
	<g id="Group_8903" transform="translate(42.69 52.135)">
		<path id="Path_15875" class="st0" d="M-150.4-158.4l2.4-2.4l-7.1-4.7L-150.4-158.4z"/>
	</g>
	<g id="Group_8904" transform="translate(45.052 49.772)">
		<path id="Path_15876" class="st0" d="M-155.1-165.5l4.7,7.1l2.4-2.4L-155.1-165.5z"/>
	</g>
	<g id="Group_8905" transform="translate(47.416 47.409)">
		<path id="Path_15877" class="st0" d="M-148-160.7l-7.1-4.7l4.7,7.1L-148-160.7z"/>
	</g>
	<g id="Group_8906" transform="translate(49.779 45.046)">
		<path id="Path_15878" class="st0" d="M-155.1-165.4l4.7,7.1l2.4-2.4L-155.1-165.4z"/>
	</g>
	<g id="Group_8907" transform="translate(52.143 42.682)">
		<path id="Path_15879" class="st0" d="M-148-160.7l-7.1-4.7l4.7,7.1L-148-160.7z"/>
	</g>
	<g id="Group_8908" transform="translate(29.298 29.29)">
		
			<rect id="Rectangle_3111" x="-157.2" y="-159.7" transform="matrix(0.7071 -0.7071 0.7071 0.7071 68.9496 -151.8513)" class="st0" width="16.7" height="1.1"/>
	</g>
	<g id="Group_8909" transform="translate(27.723 27.716)">
		
			<rect id="Rectangle_3112" x="-157.2" y="-159.7" transform="matrix(0.7071 -0.7071 0.7071 0.7071 68.9496 -151.8513)" class="st0" width="16.7" height="1.1"/>
	</g>
	<g id="Group_8910" transform="translate(26.148 26.141)">
		
			<rect id="Rectangle_3113" x="-157.2" y="-159.7" transform="matrix(0.7071 -0.7071 0.7071 0.7071 68.9496 -151.8513)" class="st0" width="16.7" height="1.1"/>
	</g>
	<g id="Group_8911" transform="translate(24.573 24.566)">
		
			<rect id="Rectangle_3114" x="-157.2" y="-159.7" transform="matrix(0.7071 -0.7071 0.7071 0.7071 68.9496 -151.8513)" class="st0" width="16.7" height="1.1"/>
	</g>
	<g id="Group_8912" transform="translate(30.873 30.866)">
		
			<rect id="Rectangle_3115" x="-157.2" y="-159.7" transform="matrix(0.7071 -0.7071 0.7071 0.7071 68.9496 -151.8513)" class="st0" width="16.7" height="1.1"/>
	</g>
	<g id="Group_8913" transform="translate(32.449 32.441)">
		
			<rect id="Rectangle_3116" x="-157.2" y="-159.7" transform="matrix(0.7071 -0.7071 0.7071 0.7071 68.9496 -151.8513)" class="st0" width="16.7" height="1.1"/>
	</g>
	<g id="Group_8914" transform="translate(34.024 34.017)">
		
			<rect id="Rectangle_3117" x="-157.2" y="-159.7" transform="matrix(0.7071 -0.7071 0.7071 0.7071 68.9496 -151.8513)" class="st0" width="16.7" height="1.1"/>
	</g>
	<g id="Group_8915" transform="translate(29.299 29.29)">
		
			<rect id="Rectangle_3118" x="-149.4" y="-167.5" transform="matrix(0.7071 -0.7071 0.7071 0.7071 68.9497 -151.8483)" class="st0" width="1.1" height="16.7"/>
	</g>
	<g id="Group_8916" transform="translate(30.874 27.716)">
		
			<rect id="Rectangle_3119" x="-149.4" y="-167.5" transform="matrix(0.7071 -0.7071 0.7071 0.7071 68.9497 -151.8483)" class="st0" width="1.1" height="16.7"/>
	</g>
	<g id="Group_8917" transform="translate(32.449 26.141)">
		
			<rect id="Rectangle_3120" x="-149.4" y="-167.5" transform="matrix(0.7071 -0.7071 0.7071 0.7071 68.9497 -151.8483)" class="st0" width="1.1" height="16.7"/>
	</g>
	<g id="Group_8918" transform="translate(34.024 24.566)">
		
			<rect id="Rectangle_3121" x="-149.4" y="-167.5" transform="matrix(0.7071 -0.7071 0.7071 0.7071 68.9497 -151.8483)" class="st0" width="1.1" height="16.7"/>
	</g>
	<g id="Group_8919" transform="translate(27.724 30.866)">
		
			<rect id="Rectangle_3122" x="-149.4" y="-167.5" transform="matrix(0.7071 -0.7071 0.7071 0.7071 68.9497 -151.8483)" class="st0" width="1.1" height="16.7"/>
	</g>
	<g id="Group_8920" transform="translate(26.149 32.441)">
		
			<rect id="Rectangle_3123" x="-149.4" y="-167.5" transform="matrix(0.7071 -0.7071 0.7071 0.7071 68.9497 -151.8483)" class="st0" width="1.1" height="16.7"/>
	</g>
	<g id="Group_8921" transform="translate(24.573 34.017)">
		
			<rect id="Rectangle_3124" x="-149.4" y="-167.5" transform="matrix(0.7071 -0.7071 0.7071 0.7071 68.9497 -151.8483)" class="st0" width="1.1" height="16.7"/>
	</g>
	<g id="Group_8922" transform="translate(53.324 5.978)">
		<path id="Path_15880" class="st0" d="M-152.8-151.2l3.5-8.3l8.3-3.5l-2.4-2.4l-8.2,3.6l-3.5,8.3L-152.8-151.2z"/>
	</g>
	<g id="Group_8923" transform="translate(49.779 2.433)">
		<path id="Path_15881" class="st0" d="M-152.8-151.2l3.5-8.3l8.3-3.5l-2.4-2.4l-8.2,3.6l-3.5,8.3L-152.8-151.2z"/>
	</g>
	<g id="Group_8924" transform="translate(56.869 9.522)">
		<path id="Path_15882" class="st0" d="M-152.8-151.2l3.5-8.3l8.3-3.5l-2.4-2.4l-8.2,3.6l-3.5,8.3L-152.8-151.2z"/>
	</g>
	<g id="Group_8925" transform="translate(62.185 14.817)">
		<path id="Path_15883" class="st0" d="M-153.4-163.6l-1.8,4.1l6-6L-153.4-163.6z"/>
	</g>
	<g id="Group_8926" transform="translate(56.278 0.146)">
		<path id="Path_15884" class="st0" d="M-152.2-165.5l-3,3l4.1-1.8L-152.2-165.5z"/>
	</g>
	<g id="Group_8927" transform="translate(47.416 9.007)">
		<path id="Path_15885" class="st0" d="M-153.9-161.3l1.8-4.1l-3,3L-153.9-161.3z"/>
	</g>
	<g id="Group_8928" transform="translate(34.812 22.202)">
		
			<rect id="Rectangle_3125" x="-154.9" y="-165.2" transform="matrix(0.7071 -0.7071 0.7071 0.7071 71.2334 -157.3615)" class="st0" width="1.1" height="1.1"/>
	</g>
	<g id="Group_8929" transform="translate(31.661 3.297)">
		<path id="Path_15886" class="st0" d="M-151.2-160.7l3.9-3.9l-0.8-0.8l-3.1,3.2l-3.2-3.2l-0.8,0.8L-151.2-160.7z"/>
	</g>
	<g id="Group_8930" transform="translate(30.086 4.872)">
		<path id="Path_15887" class="st0" d="M-149.6-159.2l5.5-5.5l-0.8-0.8l-4.7,4.7l-4.7-4.7l-0.8,0.8L-149.6-159.2z"/>
	</g>
	<g id="Group_8931" transform="translate(34.812 0.146)">
		
			<rect id="Rectangle_3126" x="-154.9" y="-165.2" transform="matrix(0.7069 -0.7073 0.7073 0.7069 71.2359 -157.4323)" class="st0" width="1.1" height="1.1"/>
	</g>
	<g id="Group_8932" transform="translate(33.237 1.721)">
		<path id="Path_15888" class="st0" d="M-152.8-162.3l2.4-2.4l-0.8-0.8l-1.6,1.6l-1.6-1.6l-0.8,0.8L-152.8-162.3z"/>
	</g>
	<g id="Group_8933" transform="translate(31.661 15.9)">
		<path id="Path_15889" class="st0" d="M-155.1-161.5l0.8,0.8l3.2-3.1l3.2,3.2l0.8-0.8l-3.9-3.9L-155.1-161.5z"/>
	</g>
	<g id="Group_8934" transform="translate(30.086 12.75)">
		<path id="Path_15890" class="st0" d="M-155.1-159.9l0.8,0.8l4.7-4.7l4.7,4.7l0.8-0.8l-5.5-5.5L-155.1-159.9z"/>
	</g>
	<g id="Group_8935" transform="translate(33.237 19.051)">
		<path id="Path_15891" class="st0" d="M-152.8-165.5l-2.4,2.4l0.8,0.8l1.6-1.6l1.6,1.6l0.8-0.8L-152.8-165.5z"/>
	</g>
	<g id="Group_8936" transform="translate(26.935 8.023)">
		<path id="Path_15892" class="st0" d="M-154.3-165.5l-0.8,0.8l3.1,3.2l-3.2,3.2l0.8,0.8l3.9-3.9L-154.3-165.5z"/>
	</g>
	<g id="Group_8937" transform="translate(28.511 6.448)">
		<path id="Path_15893" class="st0" d="M-148.8-159.9l-5.5-5.5l-0.8,0.8l4.7,4.7l-4.7,4.7l0.8,0.8L-148.8-159.9z"/>
	</g>
	<g id="Group_8938" transform="translate(23.784 11.174)">
		
			<rect id="Rectangle_3127" x="-154.9" y="-165.2" transform="matrix(0.7069 -0.7073 0.7073 0.7069 71.2357 -157.4284)" class="st0" width="1.1" height="1.1"/>
	</g>
	<g id="Group_8939" transform="translate(25.359 9.599)">
		<path id="Path_15894" class="st0" d="M-154.3-165.5l-0.8,0.8l1.6,1.6l-1.6,1.6l0.8,0.8l2.4-2.4L-154.3-165.5z"/>
	</g>
	<g id="Group_8940" transform="translate(39.538 8.023)">
		<path id="Path_15895" class="st0" d="M-150.4-164.7l-0.8-0.8l-3.9,3.9l0,0l3.9,3.9l0.8-0.8l-3.2-3.2L-150.4-164.7z"/>
	</g>
	<g id="Group_8941" transform="translate(36.388 6.448)">
		<path id="Path_15896" class="st0" d="M-148.8-164.7l-0.8-0.8l-5.5,5.5l5.5,5.5l0.8-0.8l-4.7-4.7L-148.8-164.7z"/>
	</g>
	<g id="Group_8942" transform="translate(45.84 11.174)">
		
			<rect id="Rectangle_3128" x="-154.9" y="-165.2" transform="matrix(0.7071 -0.7071 0.7071 0.7071 71.2334 -157.3614)" class="st0" width="1.1" height="1.1"/>
	</g>
	<g id="Group_8943" transform="translate(42.689 9.599)">
		<path id="Path_15897" class="st0" d="M-152-164.7l-0.8-0.8l-2.4,2.4l0,0l2.4,2.4l0.8-0.8l-1.6-1.6L-152-164.7z"/>
	</g>
	<g id="Group_8944" transform="translate(41.018 22.107)">
		<path id="Path_15898" class="st0" d="M-154.6-162.6c-0.7-0.7-0.7-1.7,0-2.4c0.7-0.7,1.7-0.7,2.4,0s0.7,1.7,0,2.4c0,0,0,0,0,0
			C-152.9-161.9-154-161.9-154.6-162.6"/>
	</g>
	<g id="Group_8945" transform="translate(43.382 19.744)">
		<path id="Path_15899" class="st0" d="M-154.6-162.6c-0.7-0.7-0.7-1.7,0-2.4c0.7-0.7,1.7-0.7,2.4,0s0.7,1.7,0,2.4c0,0,0,0,0,0
			C-152.9-162-154-162-154.6-162.6"/>
	</g>
	<g id="Group_8946" transform="translate(45.745 17.38)">
		<path id="Path_15900" class="st0" d="M-154.6-162.6c-0.7-0.7-0.7-1.7,0-2.4c0.7-0.7,1.7-0.7,2.4,0s0.7,1.7,0,2.4c0,0,0,0,0,0
			C-152.9-162-154-162-154.6-162.6"/>
	</g>
	<g id="Group_8947" transform="translate(48.108 15.017)">
		<path id="Path_15901" class="st0" d="M-154.6-162.6c-0.7-0.7-0.7-1.7,0-2.4c0.7-0.7,1.7-0.7,2.4,0s0.7,1.7,0,2.4c0,0,0,0,0,0
			C-152.9-162-154-162-154.6-162.6"/>
	</g>
	<g id="Group_8948" transform="translate(38.655 24.47)">
		<path id="Path_15902" class="st0" d="M-154.6-162.6c-0.7-0.7-0.7-1.7,0-2.4c0.7-0.7,1.7-0.7,2.4,0s0.7,1.7,0,2.4c0,0,0,0,0,0
			C-152.9-162-154-162-154.6-162.6"/>
	</g>
	<g id="Group_8949" transform="translate(44.563 23.288)">
		<path id="Path_15903" class="st0" d="M-154.6-162.6c-0.7-0.7-0.7-1.7,0-2.4c0.7-0.7,1.7-0.7,2.4,0s0.7,1.7,0,2.4c0,0,0,0,0,0
			C-152.9-162-154-162-154.6-162.6"/>
	</g>
	<g id="Group_8950" transform="translate(46.926 20.925)">
		<path id="Path_15904" class="st0" d="M-154.6-162.6c-0.7-0.7-0.7-1.7,0-2.4c0.7-0.7,1.7-0.7,2.4,0s0.7,1.7,0,2.4c0,0,0,0,0,0
			C-152.9-161.9-154-161.9-154.6-162.6"/>
	</g>
	<g id="Group_8951" transform="translate(49.289 18.562)">
		<path id="Path_15905" class="st0" d="M-154.6-162.6c-0.7-0.7-0.7-1.7,0-2.4c0.7-0.7,1.7-0.7,2.4,0s0.7,1.7,0,2.4c0,0,0,0,0,0
			C-152.9-162-154-162-154.6-162.6"/>
	</g>
	<g id="Group_8952" transform="translate(51.653 16.688)">
		<path id="Path_15906" class="st0" d="M-152.3-163.1c-0.7,0.6-1.7,0.6-2.4-0.1c-0.6-0.6-0.6-1.6,0-2.3L-152.3-163.1z"/>
	</g>
	<g id="Group_8953" transform="translate(42.2 25.651)">
		<path id="Path_15907" class="st0" d="M-154.6-162.6c-0.7-0.7-0.7-1.7,0-2.4c0.7-0.7,1.7-0.7,2.4,0s0.7,1.7,0,2.4c0,0,0,0,0,0
			C-152.9-162-154-162-154.6-162.6"/>
	</g>
	<g id="Group_8954" transform="translate(40.327 28.014)">
		<path id="Path_15908" class="st0" d="M-155.1-165c0.7-0.6,1.7-0.6,2.4,0c0.6,0.6,0.6,1.7,0,2.3L-155.1-165z"/>
	</g>
	<g id="Group_8955" transform="translate(39.837 18.562)">
		<path id="Path_15909" class="st0" d="M-154.6-162.6c-0.7-0.7-0.7-1.7,0-2.4c0.7-0.7,1.7-0.7,2.4,0s0.7,1.7,0,2.4c0,0,0,0,0,0
			C-152.9-162-154-162-154.6-162.6"/>
	</g>
	<g id="Group_8956" transform="translate(42.2 16.199)">
		<path id="Path_15910" class="st0" d="M-154.6-162.6c-0.7-0.7-0.7-1.7,0-2.4c0.7-0.7,1.7-0.7,2.4,0s0.7,1.7,0,2.4c0,0,0,0,0,0
			C-152.9-162-154-162-154.6-162.6"/>
	</g>
	<g id="Group_8957" transform="translate(44.563 13.836)">
		<path id="Path_15911" class="st0" d="M-154.6-162.6c-0.7-0.7-0.7-1.7,0-2.4c0.7-0.7,1.7-0.7,2.4,0s0.7,1.7,0,2.4c0,0,0,0,0,0
			C-152.9-162-154-162-154.6-162.6"/>
	</g>
	<g id="Group_8958" transform="translate(46.926 11.962)">
		<path id="Path_15912" class="st0" d="M-152.3-163.1c-0.6,0.7-1.7,0.7-2.4,0c-0.7-0.6-0.7-1.7,0-2.4c0,0,0,0,0,0L-152.3-163.1z"/>
	</g>
	<g id="Group_8959" transform="translate(37.474 20.925)">
		<path id="Path_15913" class="st0" d="M-154.6-162.6c-0.7-0.7-0.7-1.7,0-2.4c0.7-0.7,1.7-0.7,2.4,0s0.7,1.7,0,2.4c0,0,0,0,0,0
			C-152.9-161.9-154-161.9-154.6-162.6"/>
	</g>
	<g id="Group_8960" transform="translate(35.6 23.288)">
		<path id="Path_15914" class="st0" d="M-155.1-165c0.7-0.6,1.7-0.6,2.4,0c0.6,0.6,0.6,1.7,0,2.3L-155.1-165z"/>
	</g>
	<g id="Group_8961" transform="translate(49.289 28.015)">
		<path id="Path_15915" class="st0" d="M-154.6-162.6c-0.7-0.7-0.7-1.7,0-2.4c0.7-0.7,1.7-0.7,2.4,0s0.7,1.7,0,2.4c0,0,0,0,0,0
			C-152.9-162-154-162-154.6-162.6"/>
	</g>
	<g id="Group_8962" transform="translate(51.653 25.651)">
		<path id="Path_15916" class="st0" d="M-154.6-162.6c-0.7-0.7-0.7-1.7,0-2.4c0.7-0.7,1.7-0.7,2.4,0s0.7,1.7,0,2.4c0,0,0,0,0,0
			C-152.9-162-154-162-154.6-162.6"/>
	</g>
	<g id="Group_8963" transform="translate(54.016 23.288)">
		<path id="Path_15917" class="st0" d="M-154.6-162.6c-0.7-0.7-0.7-1.7,0-2.4c0.7-0.7,1.7-0.7,2.4,0s0.7,1.7,0,2.4c0,0,0,0,0,0
			C-152.9-162-154-162-154.6-162.6"/>
	</g>
	<g id="Group_8964" transform="translate(56.379 21.414)">
		<path id="Path_15918" class="st0" d="M-152.3-163.1c-0.7,0.6-1.7,0.6-2.4,0c-0.6-0.6-0.6-1.7,0-2.3L-152.3-163.1z"/>
	</g>
	<g id="Group_8965" transform="translate(46.926 30.378)">
		<path id="Path_15919" class="st0" d="M-154.6-162.6c-0.7-0.7-0.7-1.7,0-2.4c0.7-0.7,1.7-0.7,2.4,0s0.7,1.7,0,2.4c0,0,0,0,0,0
			C-152.9-162-154-162-154.6-162.6"/>
	</g>
	<g id="Group_8966" transform="translate(45.053 32.741)">
		<path id="Path_15920" class="st0" d="M-155.1-165c0.6-0.7,1.7-0.7,2.4,0c0.7,0.6,0.7,1.7,0,2.4c0,0,0,0,0,0L-155.1-165z"/>
	</g>
	<g id="Group_8967" transform="translate(45.745 26.833)">
		<path id="Path_15921" class="st0" d="M-154.6-162.6c-0.7-0.7-0.7-1.7,0-2.4c0.7-0.7,1.7-0.7,2.4,0s0.7,1.7,0,2.4c0,0,0,0,0,0
			C-152.9-162-154-162-154.6-162.6"/>
	</g>
	<g id="Group_8968" transform="translate(48.108 24.47)">
		<path id="Path_15922" class="st0" d="M-154.6-162.6c-0.7-0.7-0.7-1.7,0-2.4c0.7-0.7,1.7-0.7,2.4,0s0.7,1.7,0,2.4c0,0,0,0,0,0
			C-152.9-162-154-162-154.6-162.6"/>
	</g>
	<g id="Group_8969" transform="translate(50.471 22.107)">
		<path id="Path_15923" class="st0" d="M-154.6-162.6c-0.7-0.7-0.7-1.7,0-2.4c0.7-0.7,1.7-0.7,2.4,0s0.7,1.7,0,2.4c0,0,0,0,0,0
			C-152.9-161.9-154-161.9-154.6-162.6"/>
	</g>
	<g id="Group_8970" transform="translate(52.834 19.744)">
		<path id="Path_15924" class="st0" d="M-154.6-162.6c-0.7-0.7-0.7-1.7,0-2.4c0.7-0.7,1.7-0.7,2.4,0s0.7,1.7,0,2.4c0,0,0,0,0,0
			C-152.9-162-154-162-154.6-162.6"/>
	</g>
	<g id="Group_8971" transform="translate(43.381 29.196)">
		<path id="Path_15925" class="st0" d="M-154.6-162.6c-0.7-0.7-0.7-1.7,0-2.4c0.7-0.7,1.7-0.7,2.4,0s0.7,1.7,0,2.4c0,0,0,0,0,0
			C-152.9-161.9-154-161.9-154.6-162.6"/>
	</g>
	<g id="Group_8972" transform="translate(58.05 67.496)">
		<rect id="Rectangle_3129" x="-155.1" y="-165.5" class="st0" width="2.4" height="2.4"/>
	</g>
	<g id="Group_8973" transform="translate(58.05 48.591)">
		<rect id="Rectangle_3130" x="-155.1" y="-165.5" class="st0" width="2.4" height="2.4"/>
	</g>
	<g id="Group_8974" transform="translate(58.05 55.68)">
		<rect id="Rectangle_3131" x="-155.1" y="-165.5" class="st0" width="2.4" height="2.4"/>
	</g>
	<g id="Group_8975" transform="translate(55.687 58.043)">
		<rect id="Rectangle_3132" x="-155.1" y="-165.5" class="st0" width="2.4" height="2.4"/>
	</g>
	<g id="Group_8976" transform="translate(58.05 60.406)">
		<rect id="Rectangle_3133" x="-155.1" y="-165.5" class="st0" width="2.4" height="2.4"/>
	</g>
	<g id="Group_8977" transform="translate(60.413 58.043)">
		<rect id="Rectangle_3134" x="-155.1" y="-165.5" class="st0" width="2.4" height="2.4"/>
	</g>
	<g id="Group_8978" transform="translate(55.687 65.133)">
		<rect id="Rectangle_3135" x="-155.1" y="-165.5" class="st0" width="2.4" height="2.4"/>
	</g>
	<g id="Group_8979" transform="translate(53.324 62.77)">
		<rect id="Rectangle_3136" x="-155.1" y="-165.5" class="st0" width="2.4" height="2.4"/>
	</g>
	<g id="Group_8980" transform="translate(50.961 60.406)">
		<rect id="Rectangle_3137" x="-155.1" y="-165.5" class="st0" width="2.4" height="2.4"/>
	</g>
	<g id="Group_8981" transform="translate(48.597 58.043)">
		<rect id="Rectangle_3138" x="-155.1" y="-165.5" class="st0" width="2.4" height="2.4"/>
	</g>
	<g id="Group_8982" transform="translate(60.413 65.133)">
		<rect id="Rectangle_3139" x="-155.1" y="-165.5" class="st0" width="2.4" height="2.4"/>
	</g>
	<g id="Group_8983" transform="translate(55.687 50.954)">
		<rect id="Rectangle_3140" x="-155.1" y="-165.5" class="st0" width="2.4" height="2.4"/>
	</g>
	<g id="Group_8984" transform="translate(60.413 50.954)">
		<rect id="Rectangle_3141" x="-155.1" y="-165.5" class="st0" width="2.4" height="2.4"/>
	</g>
	<g id="Group_8985" transform="translate(62.776 62.77)">
		<rect id="Rectangle_3142" x="-155.1" y="-165.5" class="st0" width="2.4" height="2.4"/>
	</g>
	<g id="Group_8986" transform="translate(53.323 53.317)">
		<rect id="Rectangle_3143" x="-155.1" y="-165.5" class="st0" width="2.4" height="2.4"/>
	</g>
	<g id="Group_8987" transform="translate(62.776 53.317)">
		<rect id="Rectangle_3144" x="-155.1" y="-165.5" class="st0" width="2.4" height="2.4"/>
	</g>
	<g id="Group_8988" transform="translate(65.14 60.406)">
		<rect id="Rectangle_3145" x="-155.1" y="-165.5" class="st0" width="2.4" height="2.4"/>
	</g>
	<g id="Group_8989" transform="translate(50.961 55.68)">
		<rect id="Rectangle_3146" x="-155.1" y="-165.5" class="st0" width="2.4" height="2.4"/>
	</g>
	<g id="Group_8990" transform="translate(65.14 55.68)">
		<rect id="Rectangle_3147" x="-155.1" y="-165.5" class="st0" width="2.4" height="2.4"/>
	</g>
	<g id="Group_8991" transform="translate(67.503 58.043)">
		<rect id="Rectangle_3148" x="-155.1" y="-165.5" class="st0" width="2.4" height="2.4"/>
	</g>
	<g id="Group_8992" transform="translate(17.877 23.777)">
		<path id="Path_15926" class="st0" d="M-155.1-159.6l5.9,5.9l11.8-11.8L-155.1-159.6z"/>
	</g>
	<g id="Group_8993" transform="translate(11.968 11.962)">
		<path id="Path_15927" class="st0" d="M-143.3-165.5l-11.8,11.8l17.7-5.9L-143.3-165.5z"/>
	</g>
	<g id="Group_8994" transform="translate(23.866 47.523)">
		
			<rect id="Rectangle_3149" x="-151.7" y="-162" transform="matrix(0.7071 -0.7071 0.7071 0.7071 66.7232 -146.4754)" class="st0" width="16.5" height="16.5"/>
	</g>
	<g id="Group_8995" transform="translate(23.851 53.289)">
		<path id="Path_15928" d="M-149.2-153.6c3.3-3.3,3.3-8.6,0-11.8c0,0,0,0,0,0l-5.9,5.9L-149.2-153.6z"/>
	</g>
	<g id="Group_8996" transform="translate(29.759 47.381)">
		<path id="Path_15929" d="M-143.3-159.5l-5.9-5.9l-5.9,5.9C-151.9-156.3-146.6-156.3-143.3-159.5
			C-143.3-159.5-143.3-159.5-143.3-159.5"/>
	</g>
	<g id="Group_8997" transform="translate(29.759 62.658)">
		<path id="Path_15930" d="M-155.1-163l5.9,5.9l5.9-5.9C-146.6-166.3-151.9-166.3-155.1-163C-155.1-163-155.1-163-155.1-163"/>
	</g>
	<g id="Group_8998" transform="translate(39.127 53.289)">
		<path id="Path_15931" d="M-152.7-153.6l5.9-5.9l-5.9-5.9C-155.9-162.2-155.9-156.9-152.7-153.6
			C-152.7-153.6-152.7-153.6-152.7-153.6"/>
	</g>
	<g id="Group_8999">
		<path id="Path_15932" class="st0" d="M-95.9-94.3L-95.9-94.3l-11.8-11.8l-11.8,11.8l-0.1-0.1l-11.8-11.8l-11.8,11.8l-0.1-0.1
			l-11.9-11.9l0.1-0.1l11.8-11.8l-11.8-11.8l11.9-11.9l-11.8-11.8l11.9-11.9l11.8,11.8l11.8-11.8l11.8,11.8l11.8-11.8l11.9,11.9
			l-11.8,11.8l11.8,11.8l-11.8,11.8l11.8,11.8l-0.1,0.1L-95.9-94.3z M-131.2-106.2l11.7,11.7l11.7-11.7l-11.7-11.7L-131.2-106.2z
			 M-154.9-106.2l11.7,11.7l11.7-11.7l-11.7-11.7L-154.9-106.2z M-107.6-106.2l11.7,11.7l11.7-11.7L-95.9-118L-107.6-106.2z
			 M-119.4-118.1l11.7,11.7l11.7-11.7l-11.7-11.7L-119.4-118.1z M-143.1-118.1l11.7,11.7l11.7-11.7l-11.7-11.7L-143.1-118.1z
			 M-131.2-129.9l11.7,11.7l11.7-11.7l-11.7-11.7L-131.2-129.9z M-154.9-129.9l11.7,11.7l11.7-11.7l-11.7-11.7L-154.9-129.9z
			 M-107.6-129.9l11.7,11.7l11.7-11.7l-11.7-11.7L-107.6-129.9z M-119.4-141.7l11.7,11.7l11.7-11.7l-11.7-11.7L-119.4-141.7z
			 M-143.1-141.7l11.7,11.7l11.7-11.7l-11.7-11.7L-143.1-141.7z M-131.2-153.5l11.7,11.7l11.7-11.7l-11.7-11.7L-131.2-153.5
			L-131.2-153.5L-131.2-153.5z M-107.6-153.5l11.7,11.7l11.7-11.7l-11.7-11.7L-107.6-153.5z M-154.9-153.5l11.7,11.7l11.7-11.7
			l-11.7-11.7L-154.9-153.5z"/>
	</g>
</g>
<g id="Group_9001" transform="translate(234.181 181.338)">
	<path id="Path_15933" d="M-140-161h-5.5v13.6h-4.1V-161h-5.5v-3.7h15.1V-161z"/>
	<path id="Path_15934" d="M-125.6-154.8v7.3h-3.9v-6.5c0-1.7-0.7-2.7-2.2-2.7c-1.5,0-2.4,1.2-2.4,3.1v6.1h-3.9v-18h3.9v6.7
		c0.9-1.1,2.3-1.7,3.7-1.7C-127.2-160.4-125.6-158.1-125.6-154.8z"/>
	<path id="Path_15935" d="M-123.5-153.7c-0.1-3.5,2.6-6.5,6.1-6.7c0.2,0,0.4,0,0.5,0c3.4-0.2,6.4,2.4,6.6,5.8c0,0.2,0,0.5,0,0.7
		c0,0.4,0,0.9-0.1,1.3h-9.3c0.2,1.2,1.1,2.2,3.1,2.2c1,0.1,2-0.4,2.5-1.3l3.5,1c-1.2,2.3-3.6,3.6-6.1,3.5
		C-120.7-147.1-123.5-149.8-123.5-153.7z M-114.1-154.9c-0.2-1.3-1.4-2.3-2.8-2.1c-1.3-0.1-2.5,0.8-2.8,2.1H-114.1z"/>
</g>
<g id="Group_9002" transform="translate(234.625 202.394)">
	<path id="Path_15936" d="M-155.1-155.6c-0.1-4.9,3.8-8.9,8.6-9c0.1,0,0.3,0,0.4,0c4.9,0,7.8,3.1,8.5,5.8l-4,1
		c-0.7-1.8-2.5-3-4.4-2.9c-2.7,0-4.9,2.1-4.9,4.8c0,0.1,0,0.2,0,0.3c-0.1,2.7,1.9,5,4.7,5.1c0.1,0,0.2,0,0.2,0
		c2,0.1,3.8-1.1,4.4-2.9l4,1c-0.7,2.7-3.5,5.7-8.4,5.7c-4.9,0.2-9-3.7-9.1-8.5C-155.1-155.3-155.1-155.5-155.1-155.6z"/>
	<path id="Path_15937" d="M-136.3-153.3c-0.1-3.7,2.9-6.8,6.6-6.9s6.8,2.9,6.9,6.6s-2.9,6.8-6.6,6.9c0,0-0.1,0-0.1,0
		c-3.6,0.1-6.6-2.7-6.8-6.3C-136.3-153-136.3-153.2-136.3-153.3z M-126.6-153.3c-0.1-1.6-1.5-2.9-3.1-2.8c-1.6,0.1-2.9,1.5-2.8,3.1
		c0.1,1.6,1.4,2.8,2.9,2.8c1.6,0,2.9-1.2,2.9-2.8C-126.6-153.1-126.6-153.2-126.6-153.3L-126.6-153.3z"/>
	<path id="Path_15938" d="M-120.6-165h3.9v18h-3.9V-165z"/>
	<path id="Path_15939" d="M-113.7-165h3.9v18h-3.9V-165z"/>
	<path id="Path_15940" d="M-107.5-153.3c-0.1-3.5,2.6-6.5,6.1-6.7c0.2,0,0.4,0,0.5,0c3.4-0.2,6.4,2.4,6.6,5.8c0,0.2,0,0.5,0,0.7
		c0,0.4,0,0.9-0.1,1.3h-9.3c0.2,1.2,1.1,2.2,3.1,2.2c1,0.1,2-0.4,2.5-1.3l3.5,1c-1.2,2.3-3.6,3.6-6.1,3.5
		C-104.7-146.6-107.5-149.3-107.5-153.3z M-98.1-154.5c-0.2-1.3-1.4-2.3-2.8-2.1c-1.3-0.1-2.5,0.8-2.8,2.1H-98.1z"/>
	<path id="Path_15941" d="M-92.8-153.3c-0.1-3.6,2.8-6.6,6.4-6.6c0.1,0,0.2,0,0.3,0c3.6,0,5.8,2.3,6.3,4.3l-3.6,1
		c-0.4-1.1-1.4-1.9-2.6-1.8c-1.6,0-2.9,1.4-2.9,3c0,0.1,0,0.1,0,0.2c-0.1,1.6,1.1,3.1,2.8,3.2c0,0,0.1,0,0.1,0
		c1.2,0.1,2.2-0.7,2.6-1.8l3.6,1c-0.5,2-2.7,4.2-6.2,4.2c-3.6,0.1-6.6-2.7-6.7-6.3C-92.8-153-92.8-153.2-92.8-153.3z"/>
	<path id="Path_15942" d="M-69.5-147.4c-1,0.4-2,0.6-3.1,0.6c-3.1,0-4.4-1.9-4.4-4.7v-4.6H-79v-3.5h1.9v-3.9h3.9v3.9h3.4v3.5h-3.4
		v4.6c-0.1,0.6,0.4,1.2,1,1.3c0.1,0,0.2,0,0.3,0c0.5,0,0.9-0.1,1.3-0.3L-69.5-147.4z"/>
	<path id="Path_15943" d="M-67.8-163.3c0-1.3,1-2.3,2.2-2.3s2.3,1,2.3,2.2c0,1.3-1,2.3-2.2,2.3c0,0,0,0,0,0
		C-66.8-161-67.8-162-67.8-163.3C-67.8-163.2-67.8-163.2-67.8-163.3z M-67.6-159.6h3.9v12.6h-3.9V-159.6z"/>
	<path id="Path_15944" d="M-47.6-159.6l-5.1,12.6h-4.4l-5.1-12.6h4.3l3,8.1l3-8.1H-47.6z"/>
	<path id="Path_15945" d="M-47.2-153.3c-0.1-3.5,2.6-6.5,6.1-6.7c0.2,0,0.4,0,0.5,0c3.4-0.2,6.4,2.4,6.6,5.8c0,0.2,0,0.5,0,0.7
		c0,0.4,0,0.9-0.1,1.3h-9.3c0.2,1.2,1.1,2.2,3.1,2.2c1,0.1,2-0.4,2.5-1.3l3.5,1c-1.2,2.3-3.6,3.6-6.1,3.5
		C-44.4-146.6-47.2-149.3-47.2-153.3z M-37.8-154.5c-0.2-1.3-1.4-2.3-2.8-2.1c-1.3-0.1-2.5,0.8-2.8,2.1H-37.8z"/>
</g>
</svg>
